<?xml version="1.0" encoding="UTF-8"?>
<svg version="1.1" xmlns="http://www.w3.org/2000/svg" width="1667" height="938">
  <path fill="#212529" d="M0 0 C5.76151915 5.36832355 10.74444785 11.14264683 15.5625 17.375 C16.19027344 18.11363281 16.81804687 18.85226563 17.46484375 19.61328125 C49.99586493 58.13160694 63.91910995 110.98351342 60.09765625 160.67236328 C57.66162962 187.5060514 50.23416505 213.72982202 37.42480469 237.48486328 C35.54780884 241.59916165 38.16613423 246.35018102 39.5625 250.375 C45.24294286 266.74804118 44.43913004 286.27511897 37.10107422 301.92553711 C29.62916219 316.84880313 17.40304646 326.94109324 1.890625 332.75 C-5.28835292 334.85974045 -11.46429267 335.46317652 -18.94580078 335.12646484 C-27.46135904 334.53658459 -27.46135904 334.53658459 -35.41796875 336.953125 C-37.88129489 339.59144152 -39.59338345 342.26892919 -41.4375 345.375 C-42.38323816 346.74004931 -43.33977627 348.09765425 -44.3046875 349.44921875 C-70.56927074 386.70175116 -81.59103338 430.84008938 -74.4140625 476.015625 C-69.6559556 503.34272342 -58.77724073 529.6058341 -41.4375 551.375 C-40.99937988 551.92591309 -40.56125977 552.47682617 -40.10986328 553.04443359 C-12.23073258 587.71012978 28.22143238 610.89856691 72.70581055 615.85693359 C118.14150939 620.09616179 162.93883649 607.26555967 198.3359375 578.3125 C231.73576888 550.43484184 254.49179783 510.02977152 258.5625 466.375 C262.43199618 421.46661747 249.92372899 379.1755691 222.5625 343.375 C221.8715625 342.43914062 221.180625 341.50328125 220.46875 340.5390625 C219.8190625 339.72179687 219.169375 338.90453125 218.5 338.0625 C217.95214844 337.36511719 217.40429688 336.66773438 216.83984375 335.94921875 C213.77959974 333.56777133 213.77959974 333.56777133 205.5625 333.375 C205.5625 293.445 205.5625 253.515 205.5625 212.375 C214.8025 212.375 224.0425 212.375 233.5625 212.375 C233.8925 216.995 234.2225 221.615 234.5625 226.375 C235.944375 225.01375 237.32625 223.6525 238.75 222.25 C248.46024248 213.52863653 260.91724431 208.73467815 274.01953125 209.12890625 C285.02341286 210.19379802 295.02641784 212.52174647 302.8125 220.75390625 C311.14496208 231.27670303 313.73732292 243.67553904 313.67602539 256.85888672 C313.67617142 257.68881638 313.67631744 258.51874603 313.6764679 259.37382507 C313.67577453 262.10080635 313.66800923 264.82771824 313.66015625 267.5546875 C313.65829002 269.45183271 313.65686709 271.3489784 313.65586853 273.24612427 C313.65205948 278.22734926 313.64224301 283.20854487 313.63116455 288.1897583 C313.62091572 293.27754316 313.61636348 298.36533278 313.61132812 303.453125 C313.60061925 313.42709829 313.58303555 323.4010421 313.5625 333.375 C303.9925 333.375 294.4225 333.375 284.5625 333.375 C284.54062622 329.86383545 284.54062622 329.86383545 284.51831055 326.28173828 C284.46780863 318.51841467 284.40118661 310.75528836 284.32678509 302.99215889 C284.28219669 298.28873558 284.24291559 293.5853966 284.21606445 288.88183594 C284.18991588 284.33643099 284.14943305 279.79135256 284.09931374 275.24615097 C284.08272276 273.51840168 284.07116038 271.79059602 284.06488609 270.06277847 C284.33442895 254.90915229 284.33442895 254.90915229 278.3125 241.4375 C271.02934373 235.9751328 264.5339973 235.45648956 255.5625 236.375 C247.473788 238.07908258 242.0873107 242.52124262 237.5625 249.375 C234.87212793 255.32549888 235.16693311 261.52153816 235.0859375 267.9296875 C235.06979401 269.14520294 235.05365051 270.36071838 235.03701782 271.61306763 C235.00940913 274.17997591 234.98793228 276.74695649 234.97216797 279.31396484 C234.9490856 281.93462687 234.90811326 284.55519332 234.84912109 287.17529297 C234.76373364 290.9690717 234.73143505 294.76006711 234.7109375 298.5546875 C234.67592133 299.71950653 234.64090515 300.88432556 234.60482788 302.08444214 C234.63685974 308.11288247 235.04318698 311.57094871 239.40893555 315.92797852 C240.79075896 317.08022903 242.17518864 318.22936289 243.5625 319.375 C245.83353714 321.97062909 247.92201156 324.68570917 250 327.4375 C250.5571167 328.17282959 251.1142334 328.90815918 251.68823242 329.66577148 C283.24784519 371.97411276 296.04617818 426.33064503 288.5625 478.375 C280.32603708 528.60837274 254.36150908 575.2925283 213.5625 606.375 C212.72017822 607.03121338 212.72017822 607.03121338 211.86083984 607.70068359 C170.55374231 639.62131738 117.09505811 652.36228238 65.56420898 646.60620117 C22.87437653 640.81714405 -15.16819035 621.6899778 -46.4375 592.375 C-46.93121094 591.91528809 -47.42492187 591.45557617 -47.93359375 590.98193359 C-83.65205046 557.45691079 -105.35133402 508.61251597 -107.6015625 459.81738281 C-109.00928176 414.8055594 -98.47768256 370.13021822 -71.4375 333.375 C-71.03837402 332.83214355 -70.63924805 332.28928711 -70.22802734 331.72998047 C-67.66373902 328.25316189 -65.06455122 324.80476131 -62.4375 321.375 C-63.283125 320.42625 -64.12875 319.4775 -65 318.5 C-80.27800515 300.55555056 -84.03820386 283.52918138 -82.4375 260.375 C-80.48559094 245.67937695 -72.29828327 233.12399252 -61.4375 223.375 C-57.9270016 220.69021718 -54.33055342 218.45910078 -50.4375 216.375 C-49.73496094 215.97796875 -49.03242187 215.5809375 -48.30859375 215.171875 C-33.08378031 207.42946513 -14.51586604 208.02019237 1.5625 212.375 C5.67115192 213.83585402 9.6309067 215.49111154 13.5625 217.375 C13.73338135 216.85510498 13.9042627 216.33520996 14.08032227 215.79956055 C15.49525996 211.52189651 16.95111749 207.26330285 18.46484375 203.01953125 C33.96267165 159.01037461 32.6920195 113.36833957 12.9375 70.875 C-2.89248691 37.90216274 -28.933267 11.01494646 -61.4375 -5.625 C-62.05447754 -5.94307617 -62.67145508 -6.26115234 -63.30712891 -6.58886719 C-83.08475585 -16.6484946 -105.92816306 -23.61553904 -128.22265625 -23.86328125 C-128.9525174 -23.87302979 -129.68237854 -23.88277832 -130.43435669 -23.89282227 C-146.83572775 -24.06671527 -162.4541001 -23.74527064 -178.4375 -19.625 C-179.18402832 -19.44308105 -179.93055664 -19.26116211 -180.69970703 -19.07373047 C-192.1789108 -16.23625995 -202.81482501 -11.77009275 -213.4375 -6.625 C-214.10023926 -6.30660156 -214.76297852 -5.98820312 -215.44580078 -5.66015625 C-254.03385462 13.13190432 -283.24953228 48.14170699 -297.4375 88.375 C-300.987454 99.45046958 -304.07131936 110.80682108 -305.4375 122.375 C-305.54707031 123.17421875 -305.65664063 123.9734375 -305.76953125 124.796875 C-308.95249639 152.12793564 -304.97638733 180.54676439 -294.35546875 205.90625 C-293.4375 208.375 -293.4375 208.375 -293.4375 211.375 C-292.4475 211.045 -291.4575 210.715 -290.4375 210.375 C-276.08133918 206.83686817 -261.1980212 209.77257779 -248.328125 216.578125 C-235.55433429 224.51858949 -226.6181775 236.74488606 -222.625 251.1875 C-221.4375 258.375 -221.4375 258.375 -221.4375 279.375 C-250.4775 279.375 -279.5175 279.375 -309.4375 279.375 C-305.25991045 291.90776865 -302.90942021 298.48630723 -291.4375 304.375 C-279.29824096 309.4539905 -267.99645842 309.91706846 -255.52734375 305.73046875 C-251.40457145 303.92186952 -247.98273797 301.55030444 -244.4609375 298.765625 C-242.4375 297.375 -242.4375 297.375 -239.4375 297.375 C-238.01123047 298.78027344 -238.01123047 298.78027344 -236.5546875 300.734375 C-236.02746094 301.43820312 -235.50023437 302.14203125 -234.95703125 302.8671875 C-234.41433594 303.61226563 -233.87164062 304.35734375 -233.3125 305.125 C-232.76207031 305.85460937 -232.21164062 306.58421875 -231.64453125 307.3359375 C-227.21320629 313.32421447 -227.21320629 313.32421447 -226.4375 317.375 C-235.34999323 326.28749323 -248.15568768 331.98577284 -260.4375 334.375 C-261.82582031 334.64763672 -261.82582031 334.64763672 -263.2421875 334.92578125 C-281.72901153 337.52478463 -300.99704556 334.07547204 -316.125 322.8125 C-328.45860764 313.13132033 -335.96972045 299.811976 -338.4375 284.375 C-340.0135992 264.62409691 -337.43626174 245.98900665 -324.4375 230.3125 C-323.839375 229.66152344 -323.24125 229.01054687 -322.625 228.33984375 C-321.18812614 226.42630151 -321.18812614 226.42630151 -321.74511719 224.09692383 C-322.46196682 221.27881503 -323.3445194 218.59575645 -324.328125 215.859375 C-343.5623172 161.13957521 -341.57816177 105.54350494 -316.40917969 53.08569336 C-298.61205767 17.20149621 -268.67698067 -13.09733325 -233.28417969 -31.65478516 C-231.54671708 -32.56761916 -229.82357204 -33.50755779 -228.1015625 -34.44921875 C-152.79403187 -74.24951701 -61.27267252 -55.99169449 0 0 Z M-302.4375 244.375 C-306.01109868 249.2856594 -308.23866469 253.38082347 -309.4375 259.375 C-289.6375 259.375 -269.8375 259.375 -249.4375 259.375 C-251.43516382 250.38551281 -253.23611204 245.05274906 -260.7578125 239.734375 C-273.5640552 232.38029503 -291.74848311 233.33945638 -302.4375 244.375 Z M-45.6875 247.625 C-52.77353342 256.31359683 -54.34195664 267.52152038 -53.4375 278.375 C-51.79528855 286.52036877 -49.1927596 293.3146423 -43.4375 299.375 C-42.91285156 299.92800781 -42.38820313 300.48101562 -41.84765625 301.05078125 C-35.5839013 306.99029476 -28.51572597 309.57223908 -19.9375 309.875 C-10.80977113 309.54249754 -3.87667751 306.63985036 2.74609375 300.3515625 C11.05871025 291.30600562 14.18836342 281.83269872 13.84375 269.61328125 C12.8823563 258.54390101 8.77651785 250.05121227 0.625 242.5 C-14.22849805 230.25436802 -33.20786226 234.396584 -45.6875 247.625 Z " transform="translate(576.4375,172.625)"/>
  <path fill="#212529" d="M0 0 C9.57 0 19.14 0 29 0 C29 56.1 29 112.2 29 170 C19.76 170 10.52 170 1 170 C0.67 165.71 0.34 161.42 0 157 C-1.423125 158.216875 -2.84625 159.43375 -4.3125 160.6875 C-16.64033807 170.52539337 -29.50589649 173.02440354 -45 172 C-58.80549867 169.89630496 -71.01132514 163.26532545 -80.07421875 152.546875 C-92.26313148 135.73093465 -96.19928966 116.62379171 -93.33251953 96.12158203 C-90.97151174 81.94513438 -84.39029417 69.91541784 -74 60 C-73.44957031 59.43023437 -72.89914062 58.86046875 -72.33203125 58.2734375 C-63.25030193 49.52806852 -50.46229167 46.18728793 -38.1875 45.6875 C-23.8449645 46.07390745 -11.92838164 50.8930153 -1 60 C-0.67 40.2 -0.34 20.4 0 0 Z M-55.6875 81.78125 C-63.26504945 91.02586033 -65.53290365 102.28078924 -64.81640625 114.00390625 C-63.53916237 124.10335014 -59.48071275 133.66479505 -51.8671875 140.6015625 C-43.53665809 146.84074561 -35.21723527 147.77668491 -25 147 C-16.02544457 144.88335957 -9.74041376 140.00739751 -4.75 132.375 C1.3167274 121.53924091 2.7655844 109.26263018 -0.25 97.25 C-3.20532088 87.7575638 -7.42475395 79.80268396 -16.34375 74.64453125 C-30.51082256 68.10406608 -44.8744246 70.36744819 -55.6875 81.78125 Z " transform="translate(1483,336)"/>
  <path fill="#212529" d="M0 0 C9.57 0 19.14 0 29 0 C29 10.23 29 20.46 29 31 C37.58 31 46.16 31 55 31 C55 39.91 55 48.82 55 58 C46.42 58 37.84 58 29 58 C29 89.02 29 120.04 29 152 C19.43 152 9.86 152 0 152 C0 120.98 0 89.96 0 58 C-7.59 58 -15.18 58 -23 58 C-23 49.09 -23 40.18 -23 31 C-15.41 31 -7.82 31 0 31 C0 20.77 0 10.54 0 0 Z " transform="translate(1189,354)"/>
  <path fill="#212529" d="M0 0 C-1.69472064 10.80068226 -4.41357964 21.3868088 -7 32 C-7.66966797 31.85997559 -8.33933594 31.71995117 -9.02929688 31.57568359 C-9.91681641 31.39344238 -10.80433594 31.21120117 -11.71875 31.0234375 C-12.59466797 30.84216309 -13.47058594 30.66088867 -14.37304688 30.47412109 C-23.22975649 28.87563317 -30.43826632 30.41246949 -38.046875 35.3203125 C-43.40808891 39.51305671 -45.88327393 44.64982179 -48 51 C-48.11824282 53.28401706 -48.17698899 55.5712541 -48.20532227 57.8581543 C-48.22017166 58.89756668 -48.22017166 58.89756668 -48.23532104 59.95797729 C-48.2668896 62.24668978 -48.29167503 64.53542301 -48.31640625 66.82421875 C-48.33697979 68.41177406 -48.35797637 69.99932394 -48.37937927 71.58686829 C-48.43455861 75.76416628 -48.48398612 79.94151337 -48.53222656 84.11889648 C-48.5824718 88.38204312 -48.63814209 92.6451185 -48.69335938 96.90820312 C-48.80089036 105.2720768 -48.90184519 113.63601103 -49 122 C-58.57 122 -68.14 122 -78 122 C-78 82.07 -78 42.14 -78 1 C-68.76 1 -59.52 1 -50 1 C-49.505 9.415 -49.505 9.415 -49 18 C-47.0509375 15.710625 -47.0509375 15.710625 -45.0625 13.375 C-32.45175521 -0.62154092 -18.06449627 -4.14594996 0 0 Z " transform="translate(233,384)"/>
  <path fill="#212529" d="M0 0 C4.20659232 3.48502356 7.7606725 7.44528589 11.1875 11.6875 C9.79383871 15.88346947 7.82909779 18.48048574 4.8125 21.6875 C1.7881213 24.92429326 -1.08257852 28.19718943 -3.8125 31.6875 C-6.46539457 30.6066911 -7.94787365 29.54416319 -9.9375 27.4375 C-17.0071698 20.67520715 -26.35314107 15.72920985 -36.25 15.3125 C-45.09369724 15.68162823 -53.16844602 18.81985845 -59.8125 24.6875 C-67.95471074 34.44748624 -70.75328666 45.11516917 -69.8125 57.6875 C-67.97173747 67.52905717 -63.16788159 76.15170899 -54.9296875 82.03125 C-46.78734605 87.35627939 -39.4796137 88.57039247 -29.8125 87.6875 C-19.8534098 85.50199663 -12.81192437 79.82785238 -5.8125 72.6875 C-1.50344993 74.27020796 0.9685482 77.57433078 3.8125 81 C4.30234375 81.56912109 4.7921875 82.13824219 5.296875 82.72460938 C7.96198205 85.8957955 9.90892606 88.67879463 11.1875 92.6875 C2.15609838 104.72241624 -12.54944889 111.50215191 -27.0703125 114.21875 C-45.17745633 116.48686823 -61.50706694 113.34432913 -76.60546875 102.72265625 C-89.03313769 92.37589932 -97.22170546 76.73124492 -98.8125 60.6875 C-100.0420287 43.44441988 -97.60835258 26.02909099 -86.70703125 11.97265625 C-84.49452691 9.44027177 -82.20423048 7.05046396 -79.8125 4.6875 C-79.18601562 4.03910156 -78.55953125 3.39070313 -77.9140625 2.72265625 C-58.16790475 -16.31530596 -21.53225394 -15.91356815 0 0 Z " transform="translate(469.8125,393.3125)"/>
  <path fill="#212529" d="M0 0 C8.16140912 7.47394701 12.33724432 18.73038452 13.15874863 29.62605286 C13.41350658 35.71246998 13.340713 41.80067318 13.2890625 47.890625 C13.28345658 49.84645256 13.2791912 51.80228437 13.27619934 53.75811768 C13.26482897 58.86759385 13.2354303 63.97680793 13.2020874 69.08618164 C13.17121682 74.31523088 13.15765794 79.5443231 13.14257812 84.7734375 C13.110552 95.00534111 13.05784919 105.2369826 12.99609375 115.46875 C3.75609375 115.46875 -5.48390625 115.46875 -15.00390625 115.46875 C-15.02372559 113.35573486 -15.04354492 111.24271973 -15.06396484 109.06567383 C-15.13126345 102.03681645 -15.20889381 95.00809947 -15.29143333 87.9794054 C-15.34110268 83.72336311 -15.3874319 79.46734218 -15.42578125 75.21118164 C-15.46300926 71.09375388 -15.50946344 66.9765189 -15.56196976 62.85925865 C-15.58031671 61.29865635 -15.59549494 59.73801305 -15.60725021 58.17734718 C-15.15744336 40.52456934 -15.15744336 40.52456934 -21.00390625 24.46875 C-27.01769612 18.77147539 -32.60286982 18.01589022 -40.64453125 18.15234375 C-48.26828485 18.87039496 -54.73585117 21.94983515 -60.00390625 27.46875 C-63.9758765 33.86732586 -65.14736267 39.41510789 -65.20922852 46.89941406 C-65.22407791 48.01219727 -65.22407791 48.01219727 -65.23922729 49.14746094 C-65.27074772 51.59306679 -65.2955622 54.03869205 -65.3203125 56.484375 C-65.3408902 58.1826019 -65.36188689 59.88082377 -65.38328552 61.57904053 C-65.43842192 66.0440259 -65.48786832 70.50905685 -65.53613281 74.97412109 C-65.58640947 79.53226772 -65.64206334 84.09034834 -65.69726562 88.6484375 C-65.80474406 97.58848732 -65.90571481 106.52859335 -66.00390625 115.46875 C-75.57390625 115.46875 -85.14390625 115.46875 -95.00390625 115.46875 C-95.00390625 75.53875 -95.00390625 35.60875 -95.00390625 -5.53125 C-85.43390625 -5.53125 -75.86390625 -5.53125 -66.00390625 -5.53125 C-65.50890625 1.39875 -65.50890625 1.39875 -65.00390625 8.46875 C-64.28203125 7.72625 -63.56015625 6.98375 -62.81640625 6.21875 C-46.223192 -10.00572616 -19.27493882 -14.72860822 0 0 Z " transform="translate(738.00390625,390.53125)"/>
  <path fill="#212529" d="M0 0 C13.95696429 10.64514226 21.10519734 23.78354206 24 41 C24 47.6 24 54.2 24 61 C-5.04 61 -34.08 61 -64 61 C-60.94530439 71.1823187 -58.33837929 78.58568185 -49.25 84.4375 C-37.83712671 90.51403736 -25.80680796 91.84370382 -13.3125 88.4375 C-7.82850008 86.59620548 -3.54639942 83.96692047 0.9765625 80.390625 C3 79 3 79 6 79 C7.53393555 80.65234375 7.53393555 80.65234375 9.13671875 82.9375 C9.71357422 83.74960937 10.29042969 84.56171875 10.88476562 85.3984375 C11.47966797 86.25695312 12.07457031 87.11546875 12.6875 88 C13.29400391 88.85851562 13.90050781 89.71703125 14.52539062 90.6015625 C16.02591723 92.72829312 17.51687502 94.86111446 19 97 C15.02864127 105.52544729 4.92973202 109.36195278 -3.37109375 112.7109375 C-22.36178373 119.45682307 -42.59204539 118.82449767 -61.05859375 110.5625 C-75.59642788 102.83987895 -85.65831889 91.20521295 -90.7824707 75.62011719 C-92.85427168 68.74894099 -93.51178767 62.40831388 -93.4375 55.25 C-93.42847656 54.20086426 -93.41945313 53.15172852 -93.41015625 52.07080078 C-93.03293141 35.05114936 -87.25527169 19.55115093 -75.37890625 7.09375 C-54.39669262 -11.37335428 -23.97128942 -14.9010718 0 0 Z M-57 26 C-60.60799461 30.90498613 -62.79874148 34.99370739 -64 41 C-44.2 41 -24.4 41 -4 41 C-6.36258953 31.54964188 -8.71760483 25.68332032 -17.125 20.5 C-29.57503176 13.51867378 -46.9656479 15.68631904 -57 26 Z " transform="translate(1006,391)"/>
  <path fill="#212529" d="M0 0 C9.63067698 7.69809966 9.63067698 7.69809966 10.3359375 12.8671875 C8.68157323 15.2011825 7.06404658 17.2068678 5.1484375 19.3046875 C4.15444362 20.42793936 3.16094637 21.5516309 2.16796875 22.67578125 C1.44794678 23.47991455 1.44794678 23.47991455 0.71337891 24.30029297 C-1.15723576 26.42819175 -2.91746582 28.63704616 -4.6640625 30.8671875 C-7.98212172 29.419712 -10.14854316 27.57488211 -12.7265625 25.0546875 C-20.40019403 18.06710912 -29.54401466 14.45285697 -39.87890625 14.58984375 C-48.02391569 15.40091762 -55.92879667 19.00614829 -61.6640625 24.8671875 C-68.98474481 34.48390199 -71.80868607 44.88043513 -70.6640625 56.8671875 C-69.08609765 65.73009007 -65.02642061 74.52356421 -57.9140625 80.2421875 C-49.22360529 86.02487358 -41.10141462 88.08844583 -30.6640625 86.8671875 C-20.69980827 84.64267103 -13.67875202 79.02311238 -6.6640625 71.8671875 C-2.35501243 73.44989546 0.1169857 76.75401828 2.9609375 80.1796875 C3.45078125 80.74880859 3.940625 81.31792969 4.4453125 81.90429688 C7.11041955 85.075483 9.05736356 87.85848213 10.3359375 91.8671875 C4.56651834 98.13829528 -1.09284302 102.93690477 -8.6640625 106.8671875 C-9.37046875 107.24617188 -10.076875 107.62515625 -10.8046875 108.015625 C-24.72888091 114.87457953 -42.77148643 116.36739855 -57.69921875 111.96484375 C-74.47895649 105.75258248 -86.46665229 95.80325022 -94.4140625 79.5546875 C-102.26844748 60.9685686 -101.60847487 41.17088743 -94.37890625 22.55859375 C-91.00386596 15.17863101 -86.41538664 9.53959124 -80.6640625 3.8671875 C-80.02597656 3.21878906 -79.38789062 2.57039063 -78.73046875 1.90234375 C-58.00302875 -17.79087887 -22.20205606 -16.31886139 0 0 Z " transform="translate(1145.6640625,394.1328125)"/>
  <path fill="#212529" d="M0 0 C12.16189815 10.54276496 17.78338204 21.23810981 21.26953125 36.92578125 C21.26953125 44.18578125 21.26953125 51.44578125 21.26953125 58.92578125 C-7.77046875 58.92578125 -36.81046875 58.92578125 -66.73046875 58.92578125 C-62.65436785 70.13505873 -59.0587474 78.65882367 -48.19921875 84.22265625 C-37.46610261 88.68401175 -25.26922653 89.79508539 -14.15234375 85.98046875 C-9.13397195 83.79504877 -3.93818185 81.16985668 -0.0703125 77.23828125 C1.26953125 75.92578125 1.26953125 75.92578125 3.26953125 75.92578125 C4.68994141 77.62231445 4.68994141 77.62231445 6.30859375 79.9765625 C7.17871094 81.24209961 7.17871094 81.24209961 8.06640625 82.53320312 C8.6696875 83.42587891 9.27296875 84.31855469 9.89453125 85.23828125 C10.50554687 86.11935547 11.1165625 87.00042969 11.74609375 87.90820312 C12.32359375 88.75576172 12.90109375 89.60332031 13.49609375 90.4765625 C14.02799316 91.25684814 14.55989258 92.03713379 15.10791016 92.84106445 C16.26953125 94.92578125 16.26953125 94.92578125 16.26953125 97.92578125 C3.0805038 110.22164657 -16.4736881 115.57027734 -34.14135742 115.33251953 C-53.5750524 114.62078598 -69.03407437 107.51679486 -82.47265625 93.59375 C-94.67568336 79.17391001 -96.99721165 61.10198858 -95.73046875 42.92578125 C-93.77156985 27.93622318 -87.4581202 15.52440596 -76.73046875 4.92578125 C-76.10398437 4.27738281 -75.4775 3.62898438 -74.83203125 2.9609375 C-55.3329787 -15.83878194 -21.03114926 -15.97645244 0 0 Z M-60.73046875 25.92578125 C-64.31363056 30.45188038 -65.05336419 33.05591529 -66.73046875 38.92578125 C-46.93046875 38.92578125 -27.13046875 38.92578125 -6.73046875 38.92578125 C-8.90626233 29.13471014 -11.5205697 23.3333789 -19.96875 17.890625 C-33.62615715 10.41084769 -50.61618899 14.97462255 -60.73046875 25.92578125 Z " transform="translate(1351.73046875,393.07421875)"/>
</svg>
